<?xml version="1.0" standalone="no"?><svg xmlns="http://www.w3.org/2000/svg" viewBox="0 0 1440 320"><path fill="#5000ca" fill-opacity="1" d="M0,64L34.3,58.7C68.6,53,137,43,206,64C274.3,85,343,139,411,170.7C480,203,549,213,617,224C685.7,235,754,245,823,240C891.4,235,960,213,1029,202.7C1097.1,192,1166,192,1234,208C1302.9,224,1371,256,1406,272L1440,288L1440,0L1405.7,0C1371.4,0,1303,0,1234,0C1165.7,0,1097,0,1029,0C960,0,891,0,823,0C754.3,0,686,0,617,0C548.6,0,480,0,411,0C342.9,0,274,0,206,0C137.1,0,69,0,34,0L0,0Z"></path></svg>